<svg id="visual" viewBox="0 0 900 600" width="900" height="600" xmlns="http://www.w3.org/2000/svg" xmlns:xlink="http://www.w3.org/1999/xlink" version="1.1"><rect x="0" y="0" width="900" height="600" fill="#000e1f"></rect><defs><linearGradient id="grad1_0" x1="33.3%" y1="0%" x2="100%" y2="100%"><stop offset="20%" stop-color="#007cff" stop-opacity="1"></stop><stop offset="80%" stop-color="#007cff" stop-opacity="1"></stop></linearGradient></defs><defs><linearGradient id="grad1_1" x1="33.3%" y1="0%" x2="100%" y2="100%"><stop offset="20%" stop-color="#007cff" stop-opacity="1"></stop><stop offset="80%" stop-color="#004487" stop-opacity="1"></stop></linearGradient></defs><defs><linearGradient id="grad1_2" x1="33.3%" y1="0%" x2="100%" y2="100%"><stop offset="20%" stop-color="#000e1f" stop-opacity="1"></stop><stop offset="80%" stop-color="#004487" stop-opacity="1"></stop></linearGradient></defs><defs><linearGradient id="grad2_0" x1="0%" y1="0%" x2="66.7%" y2="100%"><stop offset="20%" stop-color="#007cff" stop-opacity="1"></stop><stop offset="80%" stop-color="#007cff" stop-opacity="1"></stop></linearGradient></defs><defs><linearGradient id="grad2_1" x1="0%" y1="0%" x2="66.7%" y2="100%"><stop offset="20%" stop-color="#004487" stop-opacity="1"></stop><stop offset="80%" stop-color="#007cff" stop-opacity="1"></stop></linearGradient></defs><defs><linearGradient id="grad2_2" x1="0%" y1="0%" x2="66.7%" y2="100%"><stop offset="20%" stop-color="#004487" stop-opacity="1"></stop><stop offset="80%" stop-color="#000e1f" stop-opacity="1"></stop></linearGradient></defs><g transform="translate(900, 0)"><path d="M0 405.6C-33.4 370.9 -66.7 336.2 -105.7 325.3C-144.7 314.4 -189.3 327.3 -231 317.9C-272.7 308.6 -311.6 277.1 -328.2 238.4C-344.7 199.8 -338.9 154 -348.1 113.1C-357.3 72.2 -381.4 36.1 -405.6 0L0 0Z" fill="#002950"></path><path d="M0 270.4C-22.2 247.3 -44.5 224.1 -70.5 216.8C-96.4 209.6 -126.2 218.2 -154 212C-181.8 205.7 -207.7 184.7 -218.8 158.9C-229.8 133.2 -225.9 102.7 -232.1 75.4C-238.2 48.1 -254.3 24.1 -270.4 0L0 0Z" fill="#0060c2"></path><path d="M0 135.2C-11.1 123.6 -22.2 112.1 -35.2 108.4C-48.2 104.8 -63.1 109.1 -77 106C-90.9 102.9 -103.9 92.4 -109.4 79.5C-114.9 66.6 -113 51.3 -116 37.7C-119.1 24.1 -127.1 12 -135.2 0L0 0Z" fill="#007cff"></path></g><g transform="translate(0, 600)"><path d="M0 -405.6C35.8 -378.7 71.6 -351.8 110.6 -340.5C149.7 -329.1 191.9 -333.4 232.8 -320.4C273.6 -307.4 312.9 -277.1 328.2 -238.4C343.4 -199.8 334.4 -152.7 343.3 -111.6C352.2 -70.4 378.9 -35.2 405.6 0L0 0Z" fill="#002950"></path><path d="M0 -270.4C23.9 -252.5 47.7 -234.5 73.8 -227C99.8 -219.4 128 -222.3 155.2 -213.6C182.4 -204.9 208.6 -184.7 218.8 -158.9C228.9 -133.2 223 -101.8 228.9 -74.4C234.8 -46.9 252.6 -23.5 270.4 0L0 0Z" fill="#0060c2"></path><path d="M0 -135.2C11.9 -126.2 23.9 -117.3 36.9 -113.5C49.9 -109.7 64 -111.1 77.6 -106.8C91.2 -102.5 104.3 -92.4 109.4 -79.5C114.5 -66.6 111.5 -50.9 114.4 -37.2C117.4 -23.5 126.3 -11.7 135.2 0L0 0Z" fill="#007cff"></path></g></svg>